# xmcd
#
# Track frame offsets:
#	150
#	19174
#	38250
#	53508
#	70934
#	87030
#	101624
#	116872
#	134000
#	147258
#	160377
#	172130
#	185449
#	200518
#	215964
#	230592
#	246378
#	259783
#	274768
#	290157
#	304476
#	319610
#	334296
#
# Disc length: 4607 seconds
#
# Revision: 0
# Processed by: cddbd v1.5.2PL0 Copyright (c) Steve Scherf et al.
# Submitted via: dBpowerAMP V4.0
#
DISCID=6c11fd17
DTITLE=Various Artist - ERG Nu Country Traxx Vol. 234 CAN
DYEAR=2013
DGENRE=Country
TTITLE0=Eric Church - The Outsiders
TTITLE1=George Strait - I Got A Car
TTITLE2=Luke Bryan - Drink A Beer
TTITLE3=Brett Kissel - Raise Your Glass
TTITLE4=Buddy Owens - Shipwrecked In My Chevrolet
TTITLE5=Road Hammers, The - Get On Down The Road
TTITLE6=Justin Moore - Lettin' The Night Roll
TTITLE7=Jason Benoit - This Is What It Feels Like
TTITLE8=Toby Keith - Shut Up And Hold On
TTITLE9=Bryce Pallister - Good Enough For My Girl
TTITLE10=Rachele Lynae  - Fishin' For Something
TTITLE11=Aaron Pritchett - You Should Be
TTITLE12=Kacey Musgraves - Follow Your Arrow
TTITLE13=Sheryl Crow - Callin' Me When I'm Lonely
TTITLE14=Bush Hawg - More Than Corn
TTITLE15=Gwen Sebastian - The Fox (Bluegrass Tribute To Ylvis)
TTITLE16=Dallas Smith - Tippin Point
TTITLE17=Weston Burt - Smile That Smile
TTITLE18=Will Hoge - Strong
TTITLE19=Rachel Farley - Midnight Road
TTITLE20=Quentin Reddy - Closer
TTITLE21=Lacs, The - Santa In A 4-Wheel Drive
TTITLE22=Robertson Family , The - Duck The Halls
EXTD=
EXTT0=
EXTT1=
EXTT2=
EXTT3=
EXTT4=
EXTT5=
EXTT6=
EXTT7=
EXTT8=
EXTT9=
EXTT10=
EXTT11=
EXTT12=
EXTT13=
EXTT14=
EXTT15=
EXTT16=
EXTT17=
EXTT18=
EXTT19=
EXTT20=
EXTT21=
EXTT22=
PLAYORDER=
